# xmcd
#
# Track frame offsets:
#	150
#	24730
#	45476
#	62251
#	74053
#	85285
#	104442
#	116719
#	130879
#	143674
#	154636
#	171196
#	183325
#	196723
#
# Disc length: 2801 seconds
#
# Revision: 0
# Processed by: cddbd v1.5.2PL0 Copyright (c) Steve Scherf et al.
# Submitted via: EZCDAudioConverter 1.1.0.1
#
DISCID=bd0aef0e
DTITLE=Cafe de Beyoğlu - Violins and Piano
DYEAR=2011
DGENRE=
TTITLE0=Kurşun Adres Sormaz Ki
TTITLE1=Hatıralar
TTITLE2=Elbet Bir Gün Buluşacağız
TTITLE3=Sarhoşum Sarhoş
TTITLE4=Bana Ellerini Ver (Pervane)
TTITLE5=Sen Gelmez Oldun
TTITLE6=Gözelim Sensin
TTITLE7=Duydum Ki Unutmuşsun
TTITLE8=Hasret
TTITLE9=Mazi Kalbimde Bir Yaradır
TTITLE10=Sanada Galmaz
TTITLE11=Öyle Sarhoş Olsam Ki
TTITLE12=Seninle Bir Dakika
TTITLE13=İkinci Bahar
EXTD=
EXTT0=
EXTT1=
EXTT2=
EXTT3=
EXTT4=
EXTT5=
EXTT6=
EXTT7=
EXTT8=
EXTT9=
EXTT10=
EXTT11=
EXTT12=
EXTT13=
PLAYORDER=
